<svg width="136" height="136" viewBox="0 0 136 136" fill="none" xmlns="http://www.w3.org/2000/svg">
<g id="Group 1">
<path id="Vector" d="M68.4322 66.1271C73.7624 66.1271 78.8743 64.0097 82.6433 60.2407C86.4123 56.4717 88.5297 51.3598 88.5297 46.0297C88.5297 40.6995 86.4123 35.5876 82.6433 31.8186C78.8743 28.0496 73.7624 25.9322 68.4322 25.9322C63.102 25.9322 57.9902 28.0496 54.2212 31.8186C50.4522 35.5876 48.3348 40.6995 48.3348 46.0297C48.3348 51.3598 50.4522 56.4717 54.2212 60.2407C57.9902 64.0097 63.102 66.1271 68.4322 66.1271ZM81.8305 46.0297C81.8305 49.5831 80.4189 52.991 77.9062 55.5037C75.3936 58.0164 71.9857 59.428 68.4322 59.428C64.8788 59.428 61.4709 58.0164 58.9582 55.5037C56.4455 52.991 55.0339 49.5831 55.0339 46.0297C55.0339 42.4762 56.4455 39.0683 58.9582 36.5556C61.4709 34.043 64.8788 32.6314 68.4322 32.6314C71.9857 32.6314 75.3936 34.043 77.9062 36.5556C80.4189 39.0683 81.8305 42.4762 81.8305 46.0297ZM108.627 99.6229C108.627 106.322 101.928 106.322 101.928 106.322H34.9365C34.9365 106.322 28.2373 106.322 28.2373 99.6229C28.2373 92.9237 34.9365 72.8263 68.4322 72.8263C101.928 72.8263 108.627 92.9237 108.627 99.6229ZM101.928 99.5961C101.921 97.9481 100.896 92.9907 96.3543 88.4487C91.9864 84.0808 83.7666 79.5254 68.4322 79.5254C53.0979 79.5254 44.878 84.0808 40.5102 88.4487C35.9681 92.9907 34.9499 97.9481 34.9365 99.5961H101.928Z" fill="#355A92"/>
<path id="Ellipse 1" d="M136 68C136 105.555 105.555 136 68 136C30.4446 136 0 105.555 0 68C0 30.4446 30.4446 0 68 0C105.555 0 136 30.4446 136 68ZM5.304 68C5.304 102.626 33.374 130.696 68 130.696C102.626 130.696 130.696 102.626 130.696 68C130.696 33.374 102.626 5.304 68 5.304C33.374 5.304 5.304 33.374 5.304 68Z" fill="#355A92"/>
</g>
</svg>
