<svg width="24" height="24" viewBox="0 0 24 24" fill="none" xmlns="http://www.w3.org/2000/svg">
<path d="M2.25 22.5C2.05109 22.5 1.86032 22.579 1.71967 22.7197C1.57902 22.8603 1.5 23.0511 1.5 23.25C1.5 23.4489 1.57902 23.6397 1.71967 23.7803C1.86032 23.921 2.05109 24 2.25 24H21.75C21.9489 24 22.1397 23.921 22.2803 23.7803C22.421 23.6397 22.5 23.4489 22.5 23.25C22.5 23.0511 22.421 22.8603 22.2803 22.7197C22.1397 22.579 21.9489 22.5 21.75 22.5H19.5V3.75001C19.5 3.15327 19.2629 2.58098 18.841 2.15902C18.419 1.73706 17.8467 1.50001 17.25 1.50001H16.5V0.750008C16.5 0.642655 16.4769 0.536555 16.4324 0.438882C16.3878 0.341209 16.3228 0.254238 16.2418 0.183847C16.1607 0.113457 16.0655 0.0612877 15.9625 0.030866C15.8596 0.000444268 15.7513 -0.00752103 15.645 0.00750849L5.145 1.50751C4.96608 1.53281 4.8023 1.62185 4.6838 1.75827C4.56529 1.89469 4.50003 2.06931 4.5 2.25001V22.5H2.25ZM16.5 3.00001H17.25C17.4489 3.00001 17.6397 3.07903 17.7803 3.21968C17.921 3.36033 18 3.5511 18 3.75001V22.5H16.5V3.00001ZM12.75 15C12.336 15 12 14.328 12 13.5C12 12.672 12.336 12 12.75 12C13.164 12 13.5 12.672 13.5 13.5C13.5 14.328 13.164 15 12.75 15Z" fill="#355A92"/>
</svg>
