<svg width="24" height="20" viewBox="0 0 24 20" fill="none" xmlns="http://www.w3.org/2000/svg">
<path d="M1.5 2.85818C2.8275 2.31084 4.731 1.72061 6.582 1.53717C8.577 1.33895 10.269 1.63037 11.25 2.6496V17.0668C9.8475 16.2827 8.07 16.1748 6.4305 16.3375C4.6605 16.515 2.8755 17.0194 1.5 17.5372V2.85818ZM12.75 2.6496C13.731 1.63037 15.423 1.33895 17.418 1.53717C19.269 1.72061 21.1725 2.31084 22.5 2.85818V17.5372C21.123 17.0194 19.3395 16.5135 17.5695 16.339C15.9285 16.1748 14.1525 16.2813 12.75 17.0668V2.6496ZM12 1.31232C10.5225 0.0593622 8.3805 -0.127028 6.4305 0.0652794C4.1595 0.291611 1.8675 1.05936 0.4395 1.6999C0.308474 1.75867 0.197363 1.85338 0.119432 1.97273C0.0415 2.09207 3.98571e-05 2.23102 0 2.37297L0 18.6452C3.4743e-05 18.7689 0.0315557 18.8907 0.0916756 18.9993C0.151796 19.108 0.238593 19.2 0.344116 19.2669C0.44964 19.3339 0.570517 19.3737 0.695675 19.3827C0.820833 19.3916 0.946271 19.3695 1.0605 19.3183C2.3835 18.7265 4.515 18.015 6.5805 17.8094C8.694 17.5993 10.4655 17.9381 11.415 19.1067C11.4853 19.1931 11.5743 19.2628 11.6756 19.3107C11.7768 19.3586 11.8877 19.3835 12 19.3835C12.1123 19.3835 12.2232 19.3586 12.3244 19.3107C12.4257 19.2628 12.5147 19.1931 12.585 19.1067C13.5345 17.9381 15.306 17.5993 17.418 17.8094C19.485 18.015 21.618 18.7265 22.9395 19.3183C23.0537 19.3695 23.1792 19.3916 23.3043 19.3827C23.4295 19.3737 23.5504 19.3339 23.6559 19.2669C23.7614 19.2 23.8482 19.108 23.9083 18.9993C23.9684 18.8907 24 18.7689 24 18.6452V2.37297C24 2.23102 23.9585 2.09207 23.8806 1.97273C23.8026 1.85338 23.6915 1.75867 23.5605 1.6999C22.1325 1.05936 19.8405 0.291611 17.5695 0.0652794C15.6195 -0.128508 13.4775 0.0593622 12 1.31232Z" fill="white"/>
</svg>
